<svg width="40" height="40" viewBox="0 0 40 40" fill="none" xmlns="http://www.w3.org/2000/svg">
<path d="M20.0011 3.3335C10.8178 3.3335 3.33447 10.8168 3.33447 20.0002C3.33447 29.1835 10.8178 36.6668 20.0011 36.6668C29.1845 36.6668 36.6678 29.1835 36.6678 20.0002C36.6678 10.8168 29.1845 3.3335 20.0011 3.3335ZM26.6678 21.2502H21.2511V26.6668C21.2511 27.3502 20.6845 27.9168 20.0011 27.9168C19.3178 27.9168 18.7511 27.3502 18.7511 26.6668V21.2502H13.3345C12.6511 21.2502 12.0845 20.6835 12.0845 20.0002C12.0845 19.3168 12.6511 18.7502 13.3345 18.7502H18.7511V13.3335C18.7511 12.6502 19.3178 12.0835 20.0011 12.0835C20.6845 12.0835 21.2511 12.6502 21.2511 13.3335V18.7502H26.6678C27.3511 18.7502 27.9178 19.3168 27.9178 20.0002C27.9178 20.6835 27.3511 21.2502 26.6678 21.2502Z" fill="#277DFF"/>
</svg>
